# This file uses centimeters as units for non-parametric coordinates.

mtllib example_02.mtl
v -3.000000 -0.500000 0.500000
v -2.000000 -0.500000 0.500000
v -1.000000 -0.500000 0.500000
v 0.000000 -0.500000 0.500000
v 1.000000 -0.500000 0.500000
v 2.000000 -0.500000 0.500000
v 3.000000 -0.500000 0.500000
v -3.000000 0.000000 0.500000
v -2.000000 0.000000 0.500000
v -1.000000 0.000000 0.500000
v 0.000000 0.000000 0.500000
v 1.000000 0.000000 0.500000
v 2.000000 0.000000 0.500000
v 3.000000 0.000000 0.500000
v -3.000000 0.000000 -0.500000
v -2.000000 0.000000 -0.500000
v -1.000000 0.000000 -0.500000
v 0.000000 0.000000 -0.500000
v 1.000000 0.000000 -0.500000
v 2.000000 0.000000 -0.500000
v 3.000000 0.000000 -0.500000
v -3.000000 -0.500000 -0.500000
v -2.000000 -0.500000 -0.500000
v -1.000000 -0.500000 -0.500000
v 0.000000 -0.500000 -0.500000
v 1.000000 -0.500000 -0.500000
v 2.000000 -0.500000 -0.500000
v 3.000000 -0.500000 -0.500000
vt 0.375000 0.000000
vt 0.416667 0.000000
vt 0.458333 0.000000
vt 0.500000 0.000000
vt 0.541667 0.000000
vt 0.583333 0.000000
vt 0.625000 0.000000
vt 0.375000 0.250000
vt 0.416667 0.250000
vt 0.458333 0.250000
vt 0.500000 0.250000
vt 0.541667 0.250000
vt 0.583333 0.250000
vt 0.625000 0.250000
vt 0.375000 0.500000
vt 0.416667 0.500000
vt 0.458333 0.500000
vt 0.500000 0.500000
vt 0.541667 0.500000
vt 0.583333 0.500000
vt 0.625000 0.500000
vt 0.375000 0.750000
vt 0.416667 0.750000
vt 0.458333 0.750000
vt 0.500000 0.750000
vt 0.541667 0.750000
vt 0.583333 0.750000
vt 0.625000 0.750000
vt 0.375000 1.000000
vt 0.416667 1.000000
vt 0.458333 1.000000
vt 0.500000 1.000000
vt 0.541667 1.000000
vt 0.583333 1.000000
vt 0.625000 1.000000
vt 0.875000 0.000000
vt 0.875000 0.250000
vt 0.125000 0.000000
vt 0.125000 0.250000
vn 0.000000 0.000000 1.000000
vn 0.000000 0.000000 1.000000
vn 0.000000 0.000000 1.000000
vn 0.000000 0.000000 1.000000
vn 0.000000 0.000000 1.000000
vn 0.000000 0.000000 1.000000
vn 0.000000 0.000000 1.000000
vn 0.000000 0.000000 1.000000
vn 0.000000 0.000000 1.000000
vn 0.000000 0.000000 1.000000
vn 0.000000 0.000000 1.000000
vn 0.000000 0.000000 1.000000
vn 0.000000 0.000000 1.000000
vn 0.000000 0.000000 1.000000
vn 0.000000 1.000000 0.000000
vn 0.000000 1.000000 0.000000
vn 0.000000 1.000000 0.000000
vn 0.000000 1.000000 0.000000
vn 0.000000 1.000000 0.000000
vn 0.000000 1.000000 0.000000
vn 0.000000 1.000000 0.000000
vn 0.000000 1.000000 0.000000
vn 0.000000 1.000000 0.000000
vn 0.000000 1.000000 0.000000
vn 0.000000 1.000000 0.000000
vn 0.000000 1.000000 0.000000
vn 0.000000 1.000000 0.000000
vn 0.000000 1.000000 0.000000
vn 0.000000 0.000000 -1.000000
vn 0.000000 0.000000 -1.000000
vn 0.000000 0.000000 -1.000000
vn 0.000000 0.000000 -1.000000
vn 0.000000 0.000000 -1.000000
vn 0.000000 0.000000 -1.000000
vn 0.000000 0.000000 -1.000000
vn 0.000000 0.000000 -1.000000
vn 0.000000 0.000000 -1.000000
vn 0.000000 0.000000 -1.000000
vn 0.000000 0.000000 -1.000000
vn 0.000000 0.000000 -1.000000
vn 0.000000 0.000000 -1.000000
vn 0.000000 0.000000 -1.000000
vn 0.000000 -1.000000 0.000000
vn 0.000000 -1.000000 0.000000
vn 0.000000 -1.000000 0.000000
vn 0.000000 -1.000000 0.000000
vn 0.000000 -1.000000 0.000000
vn 0.000000 -1.000000 0.000000
vn 0.000000 -1.000000 0.000000
vn 0.000000 -1.000000 0.000000
vn 0.000000 -1.000000 0.000000
vn 0.000000 -1.000000 0.000000
vn 0.000000 -1.000000 0.000000
vn 0.000000 -1.000000 0.000000
vn 0.000000 -1.000000 0.000000
vn 0.000000 -1.000000 0.000000
vn 1.000000 0.000000 0.000000
vn 1.000000 0.000000 0.000000
vn 1.000000 0.000000 0.000000
vn 1.000000 0.000000 0.000000
vn -1.000000 0.000000 0.000000
vn -1.000000 0.000000 0.000000
vn -1.000000 0.000000 0.000000
vn -1.000000 0.000000 0.000000
s 1
g flat
usemtl initialShadingGroup
f 1/1/1 2/2/2 9/9/3 8/8/4
f 2/2/2 3/3/5 10/10/6 9/9/3
f 3/3/5 4/4/7 11/11/8 10/10/6
f 4/4/7 5/5/9 12/12/10 11/11/8
f 5/5/9 6/6/11 13/13/12 12/12/10
f 6/6/11 7/7/13 14/14/14 13/13/12
s 2
f 8/8/15 9/9/16 16/16/17 15/15/18
f 9/9/16 10/10/19 17/17/20 16/16/17
f 10/10/19 11/11/21 18/18/22 17/17/20
f 11/11/21 12/12/23 19/19/24 18/18/22
f 12/12/23 13/13/25 20/20/26 19/19/24
f 13/13/25 14/14/27 21/21/28 20/20/26
s 3
f 15/15/29 16/16/30 23/23/31 22/22/32
f 16/16/30 17/17/33 24/24/34 23/23/31
f 17/17/33 18/18/35 25/25/36 24/24/34
f 18/18/35 19/19/37 26/26/38 25/25/36
f 19/19/37 20/20/39 27/27/40 26/26/38
f 20/20/39 21/21/41 28/28/42 27/27/40
s 4
f 22/22/43 23/23/44 2/30/45 1/29/46
f 23/23/44 24/24/47 3/31/48 2/30/45
f 24/24/47 25/25/49 4/32/50 3/31/48
f 25/25/49 26/26/51 5/33/52 4/32/50
f 26/26/51 27/27/53 6/34/54 5/33/52
f 27/27/53 28/28/55 7/35/56 6/34/54
s off
f 7/7/57 28/36/58 21/37/59 14/14/60
f 22/38/61 1/1/62 8/8/63 15/39/64
v 0.000000 2.409859 0.500000
v -1.260006 1.682395 0.500000
v -1.260006 0.227465 0.500000
v 0.000000 -0.500000 0.500000
v 1.260006 0.227465 0.500000
v 1.260006 1.682395 0.500000
v 0.000000 2.409859 0.500000
v 0.000000 1.909859 0.500000
v -0.826993 1.432395 0.500000
v -0.826993 0.477465 0.500000
v 0.000000 0.000000 0.500000
v 0.826994 0.477465 0.500000
v 0.826994 1.432395 0.500000
v 0.000000 1.909859 0.500000
v 0.000000 1.909859 -0.500000
v -0.826993 1.432395 -0.500000
v -0.826993 0.477465 -0.500000
v 0.000000 0.000000 -0.500000
v 0.826994 0.477465 -0.500000
v 0.826994 1.432395 -0.500000
v 0.000000 1.909859 -0.500000
v 0.000000 2.409859 -0.500000
v -1.260006 1.682395 -0.500000
v -1.260006 0.227465 -0.500000
v 0.000000 -0.500000 -0.500000
v 1.260006 0.227465 -0.500000
v 1.260006 1.682395 -0.500000
v 0.000000 2.409859 -0.500000
vt 0.375000 0.000000
vt 0.416667 0.000000
vt 0.458333 0.000000
vt 0.500000 0.000000
vt 0.541667 0.000000
vt 0.583333 0.000000
vt 0.625000 0.000000
vt 0.375000 0.250000
vt 0.416667 0.250000
vt 0.458333 0.250000
vt 0.500000 0.250000
vt 0.541667 0.250000
vt 0.583333 0.250000
vt 0.625000 0.250000
vt 0.375000 0.500000
vt 0.416667 0.500000
vt 0.458333 0.500000
vt 0.500000 0.500000
vt 0.541667 0.500000
vt 0.583333 0.500000
vt 0.625000 0.500000
vt 0.375000 0.750000
vt 0.416667 0.750000
vt 0.458333 0.750000
vt 0.500000 0.750000
vt 0.541667 0.750000
vt 0.583333 0.750000
vt 0.625000 0.750000
vt 0.375000 1.000000
vt 0.416667 1.000000
vt 0.458333 1.000000
vt 0.500000 1.000000
vt 0.541667 1.000000
vt 0.583333 1.000000
vt 0.625000 1.000000
vt 0.875000 0.000000
vt 0.875000 0.250000
vt 0.125000 0.000000
vt 0.125000 0.250000
vn 0.000000 0.000000 1.000000
vn 0.000000 0.000000 1.000000
vn 0.000000 0.000000 1.000000
vn 0.000000 0.000000 1.000000
vn -0.000000 0.000000 1.000000
vn -0.000000 0.000000 1.000000
vn 0.000000 0.000000 1.000000
vn 0.000000 0.000000 1.000000
vn 0.000000 0.000000 1.000000
vn 0.000000 0.000000 1.000000
vn 0.000000 0.000000 1.000000
vn 0.000000 0.000000 1.000000
vn 0.000000 0.000000 1.000000
vn 0.000000 0.000000 1.000000
vn 0.500000 -0.866025 0.000000
vn 0.762429 -0.647072 0.000000
vn 0.762429 -0.647072 0.000000
vn 0.500000 -0.866025 0.000000
vn 0.762429 0.647072 0.000000
vn 0.762429 0.647072 0.000000
vn 0.000000 1.000000 0.000000
vn 0.000000 1.000000 0.000000
vn -0.762429 0.647072 0.000000
vn -0.762429 0.647072 0.000000
vn -0.762429 -0.647072 0.000000
vn -0.762429 -0.647072 0.000000
vn -0.500000 -0.866025 0.000000
vn -0.500000 -0.866025 0.000000
vn 0.000000 0.000000 -1.000000
vn 0.000000 0.000000 -1.000000
vn 0.000000 0.000000 -1.000000
vn 0.000000 0.000000 -1.000000
vn 0.000000 0.000000 -1.000000
vn 0.000000 0.000000 -1.000000
vn 0.000000 0.000000 -1.000000
vn 0.000000 0.000000 -1.000000
vn 0.000000 0.000000 -1.000000
vn 0.000000 0.000000 -1.000000
vn 0.000000 0.000000 -1.000000
vn 0.000000 0.000000 -1.000000
vn 0.000000 0.000000 -1.000000
vn 0.000000 0.000000 -1.000000
vn -0.500000 0.866025 0.000000
vn -0.762429 0.647072 0.000000
vn -0.762429 0.647072 0.000000
vn -0.500000 0.866025 0.000000
vn -0.762429 -0.647072 0.000000
vn -0.762429 -0.647072 0.000000
vn 0.000000 -1.000000 0.000000
vn 0.000000 -1.000000 0.000000
vn 0.762429 -0.647072 0.000000
vn 0.762429 -0.647072 0.000000
vn 0.762429 0.647072 0.000000
vn 0.762429 0.647072 0.000000
vn 0.500000 0.866025 0.000000
vn 0.500000 0.866025 0.000000
vn -1.000000 0.000000 0.000000
vn -1.000000 0.000000 0.000000
vn -1.000000 0.000000 0.000000
vn -1.000000 0.000000 0.000000
vn 1.000000 0.000000 0.000000
vn 1.000000 0.000000 0.000000
vn 1.000000 0.000000 0.000000
vn 1.000000 0.000000 0.000000
s 1
g bend
f 29/40/65 30/41/66 37/48/67 36/47/68
f 30/41/66 31/42/69 38/49/70 37/48/67
f 31/42/69 32/43/71 39/50/72 38/49/70
f 32/43/71 33/44/73 40/51/74 39/50/72
f 33/44/73 34/45/75 41/52/76 40/51/74
f 34/45/75 35/46/77 42/53/78 41/52/76
s 2
f 36/47/79 37/48/80 44/55/81 43/54/82
f 37/48/80 38/49/83 45/56/84 44/55/81
f 38/49/83 39/50/85 46/57/86 45/56/84
f 39/50/85 40/51/87 47/58/88 46/57/86
f 40/51/87 41/52/89 48/59/90 47/58/88
f 41/52/89 42/53/91 49/60/92 48/59/90
s 3
f 43/54/93 44/55/94 51/62/95 50/61/96
f 44/55/94 45/56/97 52/63/98 51/62/95
f 45/56/97 46/57/99 53/64/100 52/63/98
f 46/57/99 47/58/101 54/65/102 53/64/100
f 47/58/101 48/59/103 55/66/104 54/65/102
f 48/59/103 49/60/105 56/67/106 55/66/104
s 4
f 50/61/107 51/62/108 30/69/109 29/68/110
f 51/62/108 52/63/111 31/70/112 30/69/109
f 52/63/111 53/64/113 32/71/114 31/70/112
f 53/64/113 54/65/115 33/72/116 32/71/114
f 54/65/115 55/66/117 34/73/118 33/72/116
f 55/66/117 56/67/119 35/74/120 34/73/118
s off
f 35/46/121 56/75/122 49/76/123 42/53/124
f 50/77/125 29/40/126 36/47/127 43/78/128
